<?xml version="1.0" encoding="utf-8"?>
<!-- Generator: Adobe Illustrator 25.2.0, SVG Export Plug-In . SVG Version: 6.00 Build 0)  -->
<svg version="1.1" id="Layer_1" xmlns="http://www.w3.org/2000/svg" xmlns:xlink="http://www.w3.org/1999/xlink" x="0px" y="0px"
	 viewBox="0 0 64 64" style="enable-background:new 0 0 64 64;" xml:space="preserve">
<style type="text/css">
	.st0{fill:#13424C;}
</style>
<g id="r8prwv_1_">
	<g>
		<path class="st0" d="M5,29.3c14.9,0,29.6,0,44.7,0c-0.5-0.5-0.7-0.8-1-1.1c-3.8-3.8-7.5-7.5-11.3-11.3c-1.7-1.7-1.2-4.2,1-4.6
			c0.8-0.1,2,0.1,2.5,0.7c5.8,5.6,11.4,11.3,17.1,17c1.3,1.3,1.2,2.7-0.2,4.1c-5.6,5.6-11.1,11.2-16.7,16.7
			c-1.2,1.2-2.9,1.3-3.9,0.2c-1.1-1.1-1.1-2.7,0.2-3.9c3.7-3.8,7.5-7.5,11.3-11.3c0.3-0.3,0.7-0.5,1.1-0.8c-0.1-0.1-0.2-0.3-0.2-0.4
			c-14.8,0-29.6,0-44.5,0C5,32.8,5,31.1,5,29.3z"/>
	</g>
</g>
</svg>
